<svg xmlns="http://www.w3.org/2000/svg" xmlns:xlink="http://www.w3.org/1999/xlink" t="1658992311113" class="icon" viewBox="0 0 1024 1024" version="1.1" p-id="4487" width="200" height="200"><defs><style type="text/css">@font-face { font-family: feedback-iconfont; src: url("//at.alicdn.com/t/font_1031158_u69w8yhxdu.woff2?t=1630033759944") format("woff2"), url("//at.alicdn.com/t/font_1031158_u69w8yhxdu.woff?t=1630033759944") format("woff"), url("//at.alicdn.com/t/font_1031158_u69w8yhxdu.ttf?t=1630033759944") format("truetype"); }
</style></defs><path d="M872.288 1020H151.712a89.984 89.984 0 0 1-89.856-89.856V93.856A89.984 89.984 0 0 1 151.712 4h720.576a89.984 89.984 0 0 1 89.856 89.856V162.24a32 32 0 0 1-64 0V93.856a25.888 25.888 0 0 0-25.856-25.856H151.712a25.856 25.856 0 0 0-25.856 25.856v836.288a25.92 25.92 0 0 0 25.856 25.856h720.576a25.888 25.888 0 0 0 25.856-25.856V320a32 32 0 0 1 64 0v610.144a89.984 89.984 0 0 1-89.856 89.856z" fill="#13227a" p-id="4488"/><path d="M809.184 779.328H214.848a32 32 0 0 1 0-64h594.336a32 32 0 0 1 0 64zM809.184 893.76H214.848a32 32 0 0 1 0-64h594.336a32 32 0 0 1 0 64zM809.184 664.896H214.848a32 32 0 0 1 0-64h594.336a32 32 0 0 1 0 64zM214.816 550.112a31.968 31.968 0 0 1-22.624-54.624l207.04-207.04a32 32 0 0 1 45.248 45.248l-207.072 207.04a31.904 31.904 0 0 1-22.624 9.376z" fill="#13227a" p-id="4489"/><path d="M596.16 521.184a31.904 31.904 0 0 1-22.624-9.376l-170.944-170.944a31.968 31.968 0 1 1 45.248-45.248l170.944 170.944a32 32 0 0 1-22.624 54.624z" fill="#13227a" p-id="4490"/><path d="M602.112 515.232a32 32 0 0 1-22.624-54.624l207.04-207.04a31.968 31.968 0 1 1 45.248 45.248l-207.04 207.04a31.904 31.904 0 0 1-22.624 9.376z" fill="#13227a" p-id="4491"/></svg>
